HIERARCHY
ROOT hip
{
	OFFSET 0.000000 0.000000 0.000000 
	CHANNELS 6 Xposition Yposition Zposition Xrotation Zrotation Yrotation
	JOINT abdomen
	{
		OFFSET 0.000000 3.402643 0.000000 
		CHANNELS 3 Xrotation Zrotation Yrotation
		JOINT chest
		{
			OFFSET 0.000000 8.438565 -0.680529 
			CHANNELS 3 Xrotation Zrotation Yrotation
			JOINT neck
			{
				OFFSET 0.000000 10.207942 -0.272212 
				CHANNELS 3 Xrotation Zrotation Yrotation
				JOINT head
				{
					OFFSET 0.000000 3.130431 0.000000 
					CHANNELS 3 Xrotation Zrotation Yrotation
					End Site
					{
						OFFSET 0.000000 3.130435 0.000000 
					}
				}
			}
			JOINT lCollar
			{
				OFFSET 3.470700 6.669187 -0.816635 
				CHANNELS 3 Yrotation Zrotation Xrotation
				JOINT lShldr
				{
					OFFSET 3.198488 0.000000 0.000000 
					CHANNELS 3 Zrotation Yrotation Xrotation
					JOINT lForeArm
					{
						OFFSET 10.139888 0.000000 0.000000 
						CHANNELS 3 Yrotation Zrotation Xrotation
						JOINT lHand
						{
							OFFSET 8.370511 0.000000 0.000000 
							CHANNELS 3 Zrotation Yrotation Xrotation
							End Site
							{
								OFFSET 4.083176 0.000000 0.000000 
							}
						}
					}
				}
			}
			JOINT rCollar
			{
				OFFSET -3.470700 6.669187 -0.816635 
				CHANNELS 3 Yrotation Zrotation Xrotation
				JOINT rShldr
				{
					OFFSET -3.198488 0.000000 0.000000 
					CHANNELS 3 Zrotation Yrotation Xrotation
					JOINT rForeArm
					{
						OFFSET -10.139888 0.000000 0.000000 
						CHANNELS 3 Yrotation Zrotation Xrotation
						JOINT rHand
						{
							OFFSET -8.370511 0.000000 0.000000 
							CHANNELS 3 Zrotation Yrotation Xrotation
							End Site
							{
								OFFSET -4.083176 0.000000 0.000000 
							}
						}
					}
				}
			}
		}
	}
	JOINT lThigh
	{
		OFFSET 5.308129 -1.633274 1.361059 
		CHANNELS 3 Xrotation Zrotation Yrotation
		JOINT lShin
		{
			OFFSET -2.041588 -20.007561 0.000000 
			CHANNELS 3 Xrotation Zrotation Yrotation
			JOINT lFoot
			{
				OFFSET 0.000000 -19.190928 -1.224953 
				CHANNELS 3 Xrotation Yrotation Zrotation
				End Site
				{
					OFFSET 0.000000 -2.449906 4.627600 
				}
			}
		}
	}
	JOINT rThigh
	{
		OFFSET -5.308129 -1.633274 1.361059 
		CHANNELS 3 Xrotation Zrotation Yrotation
		JOINT rShin
		{
			OFFSET 2.041588 -20.007561 0.000000 
			CHANNELS 3 Xrotation Zrotation Yrotation
			JOINT rFoot
			{
				OFFSET 0.000000 -19.190928 -1.224953 
				CHANNELS 3 Xrotation Yrotation Zrotation
				End Site
				{
					OFFSET 0.000000 -2.449906 4.627600 
				}
			}
		}
	}
}
MOTION
Frames: 11
Frame Time: 0.033333
-17.878084 50.231300 -6.372552 -0.675931 0.637844 28.039022 0.000000 0.000000 0.000000 -1.691478 1.523285 -0.810780 8.773904 5.656362 9.951818 9.110033 5.439132 10.281289 -6.037119 -0.084384 -0.864321 -73.125427 -4.006876 29.066242 -95.704201 2.312388 -17.281324 18.926739 8.076631 -2.781770 1.695900 5.145716 -1.049038 49.226391 80.272423 6.534403 120.810936 -9.603508 11.362897 -41.857395 -1.742749 -4.182426 1.785262 8.676499 5.774964 6.917681 -2.769578 17.085228 -4.726196 0.344776 -8.000271 -1.484290 -8.775803 -7.096958 10.464495 2.566049 -12.150549 -5.654860 -0.376209 6.902314 
-18.038517 50.226246 -6.438738 -0.304416 0.085522 28.867228 0.000000 0.000000 0.000000 -1.980121 1.796499 -1.172217 8.512723 5.842568 9.758510 8.861312 5.515832 10.292877 -6.336516 0.132653 -1.106499 -73.854561 -4.185441 28.696747 -95.865715 2.361393 -16.255428 17.615910 8.210294 -2.819599 1.262261 5.636712 -1.315410 45.514050 81.004745 2.277954 120.633789 -9.409859 9.210543 -44.510818 -2.525308 -3.819147 0.536966 9.178815 5.683019 7.613738 -2.694299 15.941932 -4.850236 0.344795 -8.130493 -2.040878 -8.308466 -6.931051 10.308531 2.673413 -13.361928 -5.501441 -0.353564 6.781526 
-18.236401 50.241516 -6.445887 0.119954 -0.565233 28.722160 0.000000 0.000000 0.000000 -2.431419 2.089483 -1.064813 8.355531 5.951490 10.123894 8.428070 5.783792 10.356981 -6.043528 0.509025 -1.485937 -74.495377 -4.111971 28.797680 -96.004730 2.520268 -15.568556 16.289303 8.724652 -2.801048 1.344107 5.704451 -1.727298 45.028271 81.234489 1.136866 120.722321 -9.282113 7.702834 -44.152229 -5.177358 -2.811386 -0.205891 9.887119 6.075382 7.592603 -2.868655 15.660509 -4.674072 0.353248 -8.196852 -2.625552 -7.609800 -6.356250 9.645275 2.597620 -13.858236 -5.071952 -0.336606 6.514839 
-18.318796 50.267979 -6.362084 -0.006128 -0.526030 27.989513 0.000000 0.000000 0.000000 -2.396028 2.245976 -0.586253 8.446436 5.960098 10.683511 8.232886 5.879491 10.378407 -5.557249 0.427076 -1.477419 -74.242493 -4.493327 29.675615 -95.992889 2.596011 -15.188365 16.624239 8.132120 -2.867411 1.846032 5.503763 -1.726875 43.613110 81.018471 -0.534250 120.871727 -9.144839 8.022455 -43.829903 -4.681616 -3.004994 0.702691 10.039026 6.527477 6.506092 -3.041394 16.318590 -4.192747 0.325994 -8.143600 -2.372306 -7.359169 -6.137862 9.163424 2.476593 -13.418111 -4.838706 -0.315278 6.307377 
-18.368736 50.250278 -6.322502 -0.538642 0.361494 28.193981 0.000000 0.000000 0.000000 -1.742247 1.913918 -0.703385 8.824162 5.810796 10.455112 8.049696 5.811342 10.425969 -5.747746 0.314622 -0.893958 -74.227058 -4.946118 30.112778 -96.125877 2.688784 -14.413463 17.436872 6.997653 -2.998847 1.619371 5.458113 -1.108319 41.902069 81.124794 -2.132096 120.755684 -9.171931 8.242891 -43.817406 -4.249119 -3.178492 1.981347 9.421744 6.243948 5.627502 -2.855648 16.305786 -3.776072 0.276091 -8.175372 -2.030890 -8.042290 -6.750599 10.583491 2.674581 -12.846938 -5.670451 -0.352161 6.306666 
-18.592012 50.241558 -6.307693 -0.370917 0.197160 28.623264 0.000000 0.000000 0.000000 -1.849374 1.933313 -0.976995 8.736566 5.911775 10.191873 7.887642 5.531597 10.489135 -5.967688 0.579108 -0.961600 -74.658165 -4.791812 30.184118 -96.219315 2.821963 -13.427055 17.146772 6.539930 -3.062261 1.237528 5.522534 -1.187184 42.330162 81.284370 -1.812259 120.734467 -9.192729 7.920495 -43.939304 -4.339270 -3.142766 1.560549 9.776997 6.365508 5.569484 -2.914767 15.741339 -3.484145 0.304420 -8.262018 -2.508512 -7.805122 -6.738648 11.063897 2.861078 -13.201119 -5.958866 -0.356649 6.022337 
-18.854156 50.250637 -6.262061 0.009912 -0.524160 28.370350 0.000000 0.000000 0.000000 -2.330772 2.284875 -0.898891 8.553194 6.011712 10.497992 7.308973 5.675633 10.492004 -5.962601 0.652039 -1.379333 -74.550606 -4.557003 30.175964 -96.224007 2.881750 -13.084333 16.005413 7.052951 -3.032620 1.409931 5.616669 -1.629124 42.365627 81.357628 -1.884230 120.704384 -9.199721 7.794796 -44.658417 -4.288195 -3.149707 1.053321 10.640150 6.867011 5.466278 -3.065879 14.981805 -3.423212 0.266097 -8.455768 -3.123167 -6.917675 -6.123432 10.490538 2.778689 -13.839478 -5.607935 -0.320145 5.691751 
-19.057487 50.236313 -6.188613 -0.107465 -0.681620 27.931835 0.000000 0.000000 0.000000 -2.287410 2.499801 -0.723246 8.623245 5.946259 10.900189 6.686366 6.300962 10.444997 -5.793640 0.790541 -1.340895 -74.387138 -4.907739 30.594614 -96.331863 3.015903 -12.992923 15.056841 7.463864 -3.020505 1.640624 5.552030 -1.608573 42.929333 80.943192 -0.771633 120.805038 -9.263926 9.295238 -40.935806 -4.228071 -3.210766 1.268712 11.100375 7.135892 5.411853 -3.001259 14.557819 -3.483307 0.286656 -8.776137 -3.336705 -6.417686 -5.742795 10.736210 2.682027 -13.685227 -5.754669 -0.312315 5.495308 
-19.300756 50.227707 -6.121291 -0.239338 -0.622343 27.736097 0.000000 0.000000 0.000000 -2.139593 2.460752 -0.703734 8.685065 6.125222 11.060700 6.569001 6.016514 10.743812 -5.804032 0.835524 -1.204870 -74.301788 -5.098664 30.979080 -96.674835 3.272185 -12.206553 14.444756 6.985566 -3.096963 1.598627 5.917863 -1.482343 41.188179 81.149460 -2.494814 120.594315 -9.280464 8.721103 -42.254677 -4.304815 -3.175131 1.775990 11.459672 7.606052 4.762787 -3.231123 14.399238 -3.030798 0.244490 -8.823386 -3.551611 -6.135713 -5.637377 11.189867 2.733508 -13.701175 -5.961351 -0.312287 5.221649 
-19.584867 50.209797 -6.051499 -0.411678 -0.432763 27.588734 0.000000 0.000000 0.000000 -1.885695 2.363088 -0.733007 8.712881 6.095658 11.099527 6.615192 5.676446 10.963204 -5.829232 0.675448 -0.971666 -74.018570 -5.630113 31.374313 -97.602692 3.679135 -11.116325 13.975356 5.867154 -3.222994 1.572193 5.826719 -1.246287 39.019360 81.440140 -5.145319 120.301239 -9.167699 7.838358 -43.997684 -4.189520 -3.191325 2.381467 11.705567 7.984327 4.020805 -3.338699 14.183770 -2.539567 0.179150 -8.983711 -3.737781 -5.952284 -5.506466 11.950614 2.772197 -13.209874 -6.470418 -0.318109 4.906524 
-19.795097 50.208073 -5.952225 -1.131148 0.094815 28.037165 0.000000 0.000000 0.000000 -1.252811 2.294540 -1.045648 9.140569 6.101679 10.804130 6.372660 5.714041 11.003039 -5.991129 0.735167 -0.398294 -74.230637 -6.938705 32.045067 -99.591476 4.282053 -10.988386 12.411135 6.421665 -3.216462 1.191103 6.022141 -0.648015 37.279526 80.869209 -5.954875 120.110710 -9.280666 9.272556 -39.761448 -4.345329 -3.181043 3.789044 11.630852 8.066256 2.680075 -2.988576 13.859674 -1.705284 0.143415 -9.184155 -2.985629 -5.969154 -6.005420 12.395929 3.084862 -13.209722 -6.848631 -0.310368 4.498489 
